<svg id="visual" viewBox="0 0 900 600" width="900" height="600" xmlns="http://www.w3.org/2000/svg" xmlns:xlink="http://www.w3.org/1999/xlink" version="1.1"><rect x="0" y="0" width="900" height="600" fill="#152b4c"></rect><path d="M0 238L16.7 245.8C33.3 253.7 66.7 269.3 100 275C133.3 280.7 166.7 276.3 200 276.5C233.3 276.7 266.7 281.3 300 272.5C333.3 263.7 366.7 241.3 400 239.5C433.3 237.7 466.7 256.3 500 257.3C533.3 258.3 566.7 241.7 600 236.3C633.3 231 666.7 237 700 246.7C733.3 256.3 766.7 269.7 800 271.2C833.3 272.7 866.7 262.3 883.3 257.2L900 252L900 0L883.3 0C866.7 0 833.3 0 800 0C766.7 0 733.3 0 700 0C666.7 0 633.3 0 600 0C566.7 0 533.3 0 500 0C466.7 0 433.3 0 400 0C366.7 0 333.3 0 300 0C266.7 0 233.3 0 200 0C166.7 0 133.3 0 100 0C66.7 0 33.3 0 16.7 0L0 0Z" fill="#4791fe" stroke-linecap="round" stroke-linejoin="miter"></path></svg>